<?xml version="1.0" encoding="iso-8859-1"?>
<!-- Generator: Adobe Illustrator 18.1.1, SVG Export Plug-In . SVG Version: 6.00 Build 0)  -->
<svg version="1.1" id="Capa_1" xmlns="http://www.w3.org/2000/svg" xmlns:xlink="http://www.w3.org/1999/xlink" x="0px" y="0px"
	 viewBox="0 0 25.999 25.999" style="enable-background:new 0 0 25.999 25.999;" xml:space="preserve">
<g>
	<path style="fill:#030104;" d="M15.536,14.894l-4.43-4.43c1.243-0.929,3.011-0.841,4.142,0.288
		C16.377,11.883,16.465,13.65,15.536,14.894z M4.651,16.854L2.725,18.78l4.496,4.496l1.926-1.927L4.651,16.854z M21.349,9.147
		l1.926-1.926l-4.496-4.495l-1.926,1.926L21.349,9.147z M0.799,16.853l1.284,1.285l2.568-2.568l5.78,5.779l-2.568,2.569l1.284,1.283
		c1.064,1.064,2.788,1.064,3.853,0l5.778-5.778l-3.243-3.244c-1.604,1.28-3.94,1.197-5.425-0.289
		c-1.486-1.484-1.569-3.82-0.289-5.425L6.578,7.222L0.799,13C-0.266,14.064-0.266,15.788,0.799,16.853z M10.752,15.248
		c1.13,1.129,2.898,1.217,4.143,0.288l-4.431-4.43C9.535,12.351,9.623,14.118,10.752,15.248z M13,0.799l-5.778,5.78l3.242,3.242
		c1.604-1.279,3.94-1.196,5.426,0.289s1.568,3.821,0.289,5.426l3.243,3.243L25.201,13c1.064-1.064,1.064-2.788,0-3.853l-1.284-1.284
		l-2.568,2.568l-5.78-5.779l2.568-2.568l-1.284-1.285C15.788-0.266,14.064-0.266,13,0.799z"/>
</g>
<g>
</g>
<g>
</g>
<g>
</g>
<g>
</g>
<g>
</g>
<g>
</g>
<g>
</g>
<g>
</g>
<g>
</g>
<g>
</g>
<g>
</g>
<g>
</g>
<g>
</g>
<g>
</g>
<g>
</g>
</svg>
